Coordinates
version=1
nRows=27
nColumns=12
inDegrees=yes

Units are S.I. units (second, meters, Newtons, ...)
Angles are in degrees

endheader
time	SC_y	SC_z	SC_x	AC_y	AC_z	AC_x	GH_y	GH_z	GH_yy	EL_x	PS_y
       0.0              -55.03          20.66          67.18          57.42          4.319          10.46          51.78          28.34          54.38          34.61          36.81
   0.03969              -55.02          20.65          67.18          57.42          4.317          10.46           51.8          28.33          54.36          34.63          36.82
   0.07939              -55.02          20.65          67.17          57.42          4.315          10.46          51.81          28.33          54.33          34.64          36.84
    0.1191              -55.01          20.65          67.17          57.42          4.312          10.46          51.82          28.32           54.3          34.66          36.85
    0.1588              -55.01          20.64          67.17          57.42           4.31          10.46          51.83          28.31          54.27          34.67          36.86
    0.1985               -55.0          20.64          67.17          57.42          4.308          10.46          51.85          28.31          54.24          34.69          36.87
    0.2382               -55.0          20.64          67.17          57.42          4.305          10.45          51.86           28.3          54.21          34.71          36.89
    0.2779              -54.99          20.63          67.16          57.42          4.302          10.45          51.88          28.29          54.17          34.73           36.9
    0.3176              -54.98          20.63          67.16          57.42          4.299          10.45           51.9          28.28          54.14          34.75          36.92
    0.3572              -54.98          20.63          67.16          57.42          4.296          10.45          51.92          28.27          54.09          34.77          36.93
    0.3969              -54.97          20.62          67.15          57.42          4.293          10.45          51.94          28.27          54.05           34.8          36.95
    0.4366              -54.96          20.62          67.15          57.41          4.289          10.44          51.96          28.25           54.0          34.82          36.97
    0.4763              -54.95          20.61          67.15          57.41          4.285          10.44          51.98          28.24          53.95          34.85          36.99
     0.516              -54.94          20.61          67.14          57.41           4.28          10.44          52.01          28.23           53.9          34.88          37.02
    0.5557              -54.93           20.6          67.14          57.41          4.276          10.43          52.03          28.22          53.84          34.92          37.04
    0.5954              -54.92          20.59          67.14          57.41          4.271          10.43          52.06           28.2          53.77          34.95          37.07
    0.6351              -54.91          20.59          67.13          57.41          4.265          10.43           52.1          28.19           53.7          34.99           37.1
    0.6748              -54.89          20.58          67.13          57.41          4.259          10.42          52.13          28.17          53.63          35.04          37.13
    0.7145              -54.88          20.57          67.12          57.41          4.253          10.42          52.17          28.15          53.54          35.08          37.17
    0.7542              -54.86          20.56          67.11          57.41          4.245          10.41          52.21          28.13          53.45          35.13          37.21
    0.7939              -54.84          20.55          67.11           57.4          4.237          10.41          52.26          28.11          53.35          35.19          37.25
    0.8336              -54.82          20.54           67.1           57.4          4.229           10.4          52.31          28.08          53.24          35.25          37.29
    0.8733               -54.8          20.53          67.09           57.4          4.219           10.4          52.37          28.06          53.12          35.32          37.35
     0.913              -54.78          20.51          67.08           57.4          4.209          10.39          52.43          28.03          52.99           35.4           37.4
    0.9527              -54.75           20.5          67.07           57.4          4.197          10.38           52.5          27.99          52.84          35.48          37.47
    0.9924              -54.72          20.48          67.06          57.39          4.183          10.37          52.57          27.96          52.67          35.57          37.54
     1.032              -54.69          20.46          67.05          57.39          4.169          10.36          52.66          27.91          52.48          35.68          37.61
